<svg width="74" height="55" viewBox="0 0 74 55" fill="none" xmlns="http://www.w3.org/2000/svg">
<path d="M48.5004 22.4658V26.1724H47.7582V24.5952H46.1729V26.1724H45.4307V22.4658H46.1729V23.9899H47.7582V22.4658H48.5004Z" fill="white"/>
<path d="M49.0401 24.6908C49.0401 24.3934 49.0984 24.1297 49.2151 23.8996C49.3352 23.6695 49.4961 23.4925 49.6975 23.3686C49.9025 23.2446 50.1305 23.1827 50.3815 23.1827C50.6006 23.1827 50.7915 23.2269 50.954 23.3154C51.1202 23.404 51.2527 23.5155 51.3517 23.65V23.2305H52.0992V26.1724H51.3517V25.7423C51.2562 25.8803 51.1237 25.9954 50.954 26.0874C50.7879 26.176 50.5953 26.2202 50.3762 26.2202C50.1287 26.2202 49.9025 26.1565 49.6975 26.029C49.4961 25.9016 49.3352 25.7228 49.2151 25.4927C49.0984 25.259 49.0401 24.9917 49.0401 24.6908ZM51.3517 24.7014C51.3517 24.5209 51.3163 24.3669 51.2456 24.2394C51.1749 24.1085 51.0795 24.0093 50.9593 23.9421C50.8392 23.8713 50.7102 23.8359 50.5723 23.8359C50.4345 23.8359 50.3072 23.8695 50.1906 23.9368C50.0739 24.004 49.9785 24.1031 49.9043 24.2341C49.8336 24.3616 49.7983 24.5138 49.7983 24.6908C49.7983 24.8678 49.8336 25.0236 49.9043 25.1581C49.9785 25.2891 50.0739 25.39 50.1906 25.4608C50.3108 25.5316 50.438 25.567 50.5723 25.567C50.7102 25.567 50.8392 25.5334 50.9593 25.4661C51.0795 25.3953 51.1749 25.2962 51.2456 25.1688C51.3163 25.0378 51.3517 24.882 51.3517 24.7014Z" fill="white"/>
<path d="M53.5664 23.6872C53.6618 23.5314 53.7855 23.4093 53.9375 23.3208C54.093 23.2323 54.2698 23.188 54.4677 23.188V23.9686H54.2715C54.0382 23.9686 53.8615 24.0235 53.7414 24.1332C53.6247 24.243 53.5664 24.4342 53.5664 24.7068V26.1724H52.8242V23.2305H53.5664V23.6872Z" fill="white"/>
<path d="M54.7768 24.6908C54.7768 24.3934 54.8351 24.1297 54.9517 23.8996C55.0719 23.6695 55.2345 23.4925 55.4395 23.3686C55.6445 23.2446 55.8725 23.1827 56.1234 23.1827C56.3143 23.1827 56.4963 23.2252 56.6695 23.3101C56.8427 23.3916 56.9805 23.5013 57.083 23.6394V22.2428H57.8359V26.1724H57.083V25.737C56.9911 25.8821 56.8621 25.9989 56.696 26.0874C56.5299 26.176 56.3372 26.2202 56.1181 26.2202C55.8707 26.2202 55.6445 26.1565 55.4395 26.029C55.2345 25.9016 55.0719 25.7228 54.9517 25.4927C54.8351 25.259 54.7768 24.9917 54.7768 24.6908ZM57.0883 24.7014C57.0883 24.5209 57.053 24.3669 56.9823 24.2394C56.9116 24.1085 56.8162 24.0093 56.696 23.9421C56.5758 23.8713 56.4468 23.8359 56.309 23.8359C56.1711 23.8359 56.0439 23.8695 55.9272 23.9368C55.8106 24.004 55.7152 24.1031 55.641 24.2341C55.5703 24.3616 55.5349 24.5138 55.5349 24.6908C55.5349 24.8678 55.5703 25.0236 55.641 25.1581C55.7152 25.2891 55.8106 25.39 55.9272 25.4608C56.0474 25.5316 56.1747 25.567 56.309 25.567C56.4468 25.567 56.5758 25.5334 56.696 25.4661C56.8162 25.3953 56.9116 25.2962 56.9823 25.1688C57.053 25.0378 57.0883 24.882 57.0883 24.7014Z" fill="white"/>
<path d="M62.6326 23.2305L61.7737 26.1724H60.9731L60.4376 24.1173L59.9021 26.1724H59.0963L58.2321 23.2305H58.9849L59.5045 25.4714L60.0665 23.2305H60.8512L61.4025 25.4661L61.9221 23.2305H62.6326Z" fill="white"/>
<path d="M62.8433 24.6908C62.8433 24.3934 62.9016 24.1297 63.0183 23.8996C63.1384 23.6695 63.2992 23.4925 63.5007 23.3686C63.7057 23.2446 63.9337 23.1827 64.1846 23.1827C64.4038 23.1827 64.5946 23.2269 64.7572 23.3154C64.9234 23.404 65.0559 23.5155 65.1549 23.65V23.2305H65.9024V26.1724H65.1549V25.7423C65.0594 25.8803 64.9269 25.9954 64.7572 26.0874C64.5911 26.176 64.3985 26.2202 64.1793 26.2202C63.9319 26.2202 63.7057 26.1565 63.5007 26.029C63.2992 25.9016 63.1384 25.7228 63.0183 25.4927C62.9016 25.259 62.8433 24.9917 62.8433 24.6908ZM65.1549 24.7014C65.1549 24.5209 65.1195 24.3669 65.0488 24.2394C64.9781 24.1085 64.8827 24.0093 64.7625 23.9421C64.6424 23.8713 64.5133 23.8359 64.3755 23.8359C64.2377 23.8359 64.1104 23.8695 63.9938 23.9368C63.8771 24.004 63.7817 24.1031 63.7075 24.2341C63.6368 24.3616 63.6014 24.5138 63.6014 24.6908C63.6014 24.8678 63.6368 25.0236 63.7075 25.1581C63.7817 25.2891 63.8771 25.39 63.9938 25.4608C64.114 25.5316 64.2412 25.567 64.3755 25.567C64.5133 25.567 64.6424 25.5334 64.7625 25.4661C64.8827 25.3953 64.9781 25.2962 65.0488 25.1688C65.1195 25.0378 65.1549 24.882 65.1549 24.7014Z" fill="white"/>
<path d="M67.3696 23.6872C67.465 23.5314 67.5887 23.4093 67.7407 23.3208C67.8962 23.2323 68.0729 23.188 68.2709 23.188V23.9686H68.0747C67.8414 23.9686 67.6647 24.0235 67.5445 24.1332C67.4279 24.243 67.3696 24.4342 67.3696 24.7068V26.1724H66.6273V23.2305H67.3696V23.6872Z" fill="white"/>
<path d="M71.5012 24.6377C71.5012 24.7439 71.4941 24.8395 71.48 24.9245H69.3328C69.3505 25.1369 69.4247 25.3033 69.5555 25.4237C69.6862 25.544 69.8471 25.6042 70.0379 25.6042C70.3136 25.6042 70.5098 25.4856 70.6264 25.2484H71.427C71.3422 25.5316 71.1796 25.7653 70.9392 25.9494C70.6989 26.1299 70.4038 26.2202 70.0538 26.2202C69.7711 26.2202 69.5166 26.1583 69.2904 26.0343C69.0677 25.9069 68.8928 25.7281 68.7655 25.498C68.6418 25.2679 68.58 25.0024 68.58 24.7014C68.58 24.397 68.6418 24.1297 68.7655 23.8996C68.8892 23.6695 69.0624 23.4925 69.2851 23.3686C69.5078 23.2446 69.764 23.1827 70.0538 23.1827C70.3331 23.1827 70.5823 23.2429 70.8014 23.3632C71.0241 23.4836 71.1955 23.6553 71.3157 23.8783C71.4394 24.0978 71.5012 24.351 71.5012 24.6377ZM70.7325 24.4253C70.7289 24.2341 70.66 24.0819 70.5257 23.9686C70.3914 23.8518 70.227 23.7934 70.0326 23.7934C69.8488 23.7934 69.6933 23.85 69.5661 23.9633C69.4424 24.0731 69.3664 24.2271 69.3381 24.4253H70.7325Z" fill="white"/>
<path d="M46.1729 27.2383V28.1676H47.4188V28.757H46.1729V29.7394H47.5779V30.3448H45.4307V26.6329H47.5779V27.2383H46.1729Z" fill="white"/>
<path d="M51.9 27.3604C52.2606 27.3604 52.5504 27.4719 52.7695 27.695C52.9922 27.9145 53.1035 28.2225 53.1035 28.619V30.3448H52.3613V28.7199C52.3613 28.4897 52.303 28.3145 52.1863 28.1941C52.0697 28.0702 51.9106 28.0083 51.7092 28.0083C51.5077 28.0083 51.3469 28.0702 51.2267 28.1941C51.1101 28.3145 51.0518 28.4897 51.0518 28.7199V30.3448H50.3095V28.7199C50.3095 28.4897 50.2512 28.3145 50.1345 28.1941C50.0179 28.0702 49.8589 28.0083 49.6574 28.0083C49.4524 28.0083 49.2898 28.0702 49.1696 28.1941C49.053 28.3145 48.9947 28.4897 48.9947 28.7199V30.3448H48.2524V27.4029H48.9947V27.7587C49.0901 27.6348 49.212 27.5374 49.3605 27.4666C49.5125 27.3958 49.6786 27.3604 49.8589 27.3604C50.0886 27.3604 50.2936 27.41 50.4739 27.5091C50.6541 27.6047 50.7937 27.7428 50.8927 27.9233C50.9881 27.7534 51.126 27.6171 51.3062 27.5144C51.49 27.4117 51.688 27.3604 51.9 27.3604Z" fill="white"/>
<path d="M54.5501 27.833C54.6455 27.6914 54.7763 27.5764 54.9424 27.4879C55.1121 27.3994 55.3047 27.3551 55.5203 27.3551C55.7713 27.3551 55.9975 27.4171 56.199 27.541C56.404 27.6649 56.5648 27.8419 56.6814 28.072C56.8016 28.2986 56.8617 28.5623 56.8617 28.8632C56.8617 29.1642 56.8016 29.4314 56.6814 29.6651C56.5648 29.8952 56.404 30.074 56.199 30.2014C55.9975 30.3289 55.7713 30.3926 55.5203 30.3926C55.3012 30.3926 55.1086 30.3501 54.9424 30.2652C54.7799 30.1767 54.6491 30.0634 54.5501 29.9253V30.3448H53.8079V26.4152H54.5501V27.833ZM56.1035 28.8632C56.1035 28.6862 56.0664 28.534 55.9922 28.4066C55.9215 28.2756 55.8261 28.1764 55.7059 28.1092C55.5893 28.0419 55.462 28.0083 55.3242 28.0083C55.1899 28.0083 55.0626 28.0437 54.9424 28.1145C54.8258 28.1817 54.7304 28.2809 54.6562 28.4119C54.5855 28.5429 54.5501 28.6968 54.5501 28.8739C54.5501 29.0509 54.5855 29.2049 54.6562 29.3359C54.7304 29.4668 54.8258 29.5677 54.9424 29.6386C55.0626 29.7058 55.1899 29.7394 55.3242 29.7394C55.462 29.7394 55.5893 29.704 55.7059 29.6332C55.8261 29.5624 55.9215 29.4615 55.9922 29.3305C56.0664 29.1996 56.1035 29.0438 56.1035 28.8632Z" fill="white"/>
<path d="M60.1315 28.8101C60.1315 28.9163 60.1244 29.0119 60.1102 29.0969H57.963C57.9807 29.3093 58.0549 29.4757 58.1857 29.5961C58.3165 29.7164 58.4773 29.7766 58.6682 29.7766C58.9439 29.7766 59.14 29.658 59.2567 29.4208H60.0572C59.9724 29.704 59.8098 29.9377 59.5695 30.1218C59.3291 30.3023 59.034 30.3926 58.6841 30.3926C58.4013 30.3926 58.1468 30.3307 57.9206 30.2068C57.6979 30.0793 57.523 29.9005 57.3957 29.6704C57.272 29.4403 57.2102 29.1748 57.2102 28.8739C57.2102 28.5694 57.272 28.3021 57.3957 28.072C57.5195 27.8419 57.6926 27.6649 57.9153 27.541C58.138 27.4171 58.3942 27.3551 58.6841 27.3551C58.9633 27.3551 59.2125 27.4153 59.4316 27.5357C59.6543 27.656 59.8257 27.8277 59.9459 28.0508C60.0696 28.2703 60.1315 28.5234 60.1315 28.8101ZM59.3627 28.5977C59.3592 28.4065 59.2902 28.2543 59.1559 28.141C59.0216 28.0242 58.8573 27.9658 58.6629 27.9658C58.4791 27.9658 58.3236 28.0224 58.1963 28.1357C58.0726 28.2455 57.9966 28.3995 57.9683 28.5977H59.3627Z" fill="white"/>
<path d="M60.4824 28.8632C60.4824 28.5659 60.5407 28.3021 60.6573 28.072C60.7775 27.8419 60.9401 27.6649 61.1451 27.541C61.3501 27.4171 61.5781 27.3551 61.829 27.3551C62.0199 27.3551 62.2019 27.3976 62.3751 27.4826C62.5483 27.564 62.6861 27.6737 62.7886 27.8118V26.4152H63.5415V30.3448H62.7886V29.9094C62.6967 30.0545 62.5677 30.1714 62.4016 30.2599C62.2355 30.3484 62.0428 30.3926 61.8237 30.3926C61.5763 30.3926 61.3501 30.3289 61.1451 30.2014C60.9401 30.074 60.7775 29.8952 60.6573 29.6651C60.5407 29.4314 60.4824 29.1642 60.4824 28.8632ZM62.7939 28.8739C62.7939 28.6933 62.7586 28.5393 62.6879 28.4119C62.6172 28.2809 62.5218 28.1817 62.4016 28.1145C62.2814 28.0437 62.1524 28.0083 62.0146 28.0083C61.8767 28.0083 61.7495 28.0419 61.6328 28.1092C61.5162 28.1764 61.4208 28.2756 61.3465 28.4066C61.2759 28.534 61.2405 28.6862 61.2405 28.8632C61.2405 29.0403 61.2759 29.196 61.3465 29.3305C61.4208 29.4615 61.5162 29.5624 61.6328 29.6332C61.753 29.704 61.8803 29.7394 62.0146 29.7394C62.1524 29.7394 62.2814 29.7058 62.4016 29.6386C62.5218 29.5677 62.6172 29.4686 62.6879 29.3412C62.7586 29.2102 62.7939 29.0544 62.7939 28.8739Z" fill="white"/>
<path d="M64.0755 28.8632C64.0755 28.5659 64.1339 28.3021 64.2505 28.072C64.3707 27.8419 64.5333 27.6649 64.7383 27.541C64.9433 27.4171 65.1712 27.3551 65.4222 27.3551C65.6131 27.3551 65.7951 27.3976 65.9683 27.4826C66.1415 27.564 66.2793 27.6737 66.3818 27.8118V26.4152H67.1346V30.3448H66.3818V29.9094C66.2899 30.0545 66.1609 30.1714 65.9948 30.2599C65.8287 30.3484 65.636 30.3926 65.4169 30.3926C65.1695 30.3926 64.9433 30.3289 64.7383 30.2014C64.5333 30.074 64.3707 29.8952 64.2505 29.6651C64.1339 29.4314 64.0755 29.1642 64.0755 28.8632ZM66.3871 28.8739C66.3871 28.6933 66.3518 28.5393 66.2811 28.4119C66.2104 28.2809 66.1149 28.1817 65.9948 28.1145C65.8746 28.0437 65.7456 28.0083 65.6077 28.0083C65.4699 28.0083 65.3427 28.0419 65.226 28.1092C65.1094 28.1764 65.0139 28.2756 64.9397 28.4066C64.869 28.534 64.8337 28.6862 64.8337 28.8632C64.8337 29.0403 64.869 29.196 64.9397 29.3305C65.0139 29.4615 65.1094 29.5624 65.226 29.6332C65.3462 29.704 65.4734 29.7394 65.6077 29.7394C65.7456 29.7394 65.8746 29.7058 65.9948 29.6386C66.1149 29.5677 66.2104 29.4686 66.2811 29.3412C66.3518 29.2102 66.3871 29.0544 66.3871 28.8739Z" fill="white"/>
<path d="M70.59 28.8101C70.59 28.9163 70.5829 29.0119 70.5688 29.0969H68.4216C68.4392 29.3093 68.5135 29.4757 68.6442 29.5961C68.775 29.7164 68.9358 29.7766 69.1267 29.7766C69.4024 29.7766 69.5986 29.658 69.7152 29.4208H70.5158C70.4309 29.704 70.2683 29.9377 70.028 30.1218C69.7877 30.3023 69.4925 30.3926 69.1426 30.3926C68.8598 30.3926 68.6054 30.3307 68.3792 30.2068C68.1565 30.0793 67.9815 29.9005 67.8543 29.6704C67.7306 29.4403 67.6687 29.1748 67.6687 28.8739C67.6687 28.5694 67.7306 28.3021 67.8543 28.072C67.978 27.8419 68.1512 27.6649 68.3739 27.541C68.5965 27.4171 68.8528 27.3551 69.1426 27.3551C69.4218 27.3551 69.671 27.4153 69.8902 27.5357C70.1128 27.656 70.2842 27.8277 70.4044 28.0508C70.5281 28.2703 70.59 28.5234 70.59 28.8101ZM69.8212 28.5977C69.8177 28.4065 69.7488 28.2543 69.6145 28.141C69.4801 28.0242 69.3158 27.9658 69.1214 27.9658C68.9376 27.9658 68.7821 28.0224 68.6548 28.1357C68.5311 28.2455 68.4551 28.3995 68.4269 28.5977H69.8212Z" fill="white"/>
<path d="M70.9409 28.8632C70.9409 28.5659 70.9992 28.3021 71.1158 28.072C71.236 27.8419 71.3986 27.6649 71.6036 27.541C71.8086 27.4171 72.0366 27.3551 72.2875 27.3551C72.4784 27.3551 72.6604 27.3976 72.8336 27.4826C73.0068 27.564 73.1447 27.6737 73.2472 27.8118V26.4152H74V30.3448H73.2472V29.9094C73.1553 30.0545 73.0262 30.1714 72.8601 30.2599C72.694 30.3484 72.5014 30.3926 72.2822 30.3926C72.0348 30.3926 71.8086 30.3289 71.6036 30.2014C71.3986 30.074 71.236 29.8952 71.1158 29.6651C70.9992 29.4314 70.9409 29.1642 70.9409 28.8632ZM73.2524 28.8739C73.2524 28.6933 73.2171 28.5393 73.1464 28.4119C73.0757 28.2809 72.9803 28.1817 72.8601 28.1145C72.74 28.0437 72.6109 28.0083 72.4731 28.0083C72.3353 28.0083 72.208 28.0419 72.0914 28.1092C71.9747 28.1764 71.8793 28.2756 71.8051 28.4066C71.7344 28.534 71.699 28.6862 71.699 28.8632C71.699 29.0403 71.7344 29.196 71.8051 29.3305C71.8793 29.4615 71.9747 29.5624 72.0914 29.6332C72.2115 29.704 72.3388 29.7394 72.4731 29.7394C72.6109 29.7394 72.74 29.7058 72.8601 29.6386C72.9803 29.5677 73.0757 29.4686 73.1464 29.3412C73.2171 29.2102 73.2524 29.0544 73.2524 28.8739Z" fill="white"/>
<path d="M46.7084 34.9337C46.4504 34.9337 46.2171 34.8895 46.0086 34.801C45.8036 34.7125 45.641 34.585 45.5208 34.4186C45.4007 34.2522 45.3388 34.0557 45.3353 33.8292H46.1305C46.1411 33.9814 46.1941 34.1018 46.2896 34.1903C46.3885 34.2788 46.5229 34.323 46.6925 34.323C46.8657 34.323 47.0018 34.2823 47.1007 34.2009C47.1997 34.1159 47.2492 34.0062 47.2492 33.8717C47.2492 33.7619 47.2156 33.6716 47.1485 33.6008C47.0813 33.53 46.9965 33.4752 46.894 33.4362C46.795 33.3937 46.6572 33.3477 46.4804 33.2981C46.2401 33.2273 46.0439 33.1583 45.8919 33.091C45.7435 33.0202 45.6145 32.9158 45.5049 32.7777C45.3989 32.6361 45.3459 32.4485 45.3459 32.2148C45.3459 31.9953 45.4007 31.8042 45.5102 31.6413C45.6198 31.4785 45.7735 31.3545 45.9715 31.2696C46.1694 31.1811 46.3956 31.1368 46.6501 31.1368C47.0318 31.1368 47.3411 31.2306 47.5779 31.4183C47.8182 31.6024 47.9508 31.8608 47.9755 32.1936H47.1591C47.152 32.0661 47.0972 31.9617 46.9947 31.8803C46.8957 31.7953 46.7632 31.7528 46.5971 31.7528C46.4522 31.7528 46.3355 31.79 46.2472 31.8643C46.1623 31.9387 46.1199 32.0467 46.1199 32.1883C46.1199 32.2874 46.1517 32.3706 46.2154 32.4379C46.2825 32.5016 46.3638 32.5547 46.4592 32.5972C46.5582 32.6361 46.696 32.6821 46.8728 32.7352C47.1131 32.806 47.3093 32.8769 47.4613 32.9477C47.6132 33.0185 47.744 33.1247 47.8536 33.2663C47.9632 33.4079 48.0179 33.5937 48.0179 33.8239C48.0179 34.0221 47.9667 34.2062 47.8642 34.3761C47.7617 34.5461 47.6115 34.6824 47.4136 34.785C47.2156 34.8842 46.9806 34.9337 46.7084 34.9337Z" fill="white"/>
<path d="M51.4714 31.9546L49.6529 36.2879H48.8629L49.4991 34.8222L48.3221 31.9546H49.1545L49.9127 34.0097L50.6814 31.9546H51.4714Z" fill="white"/>
<path d="M52.9955 34.9443C52.7551 34.9443 52.5395 34.9019 52.3486 34.8169C52.1578 34.7284 52.0058 34.6098 51.8927 34.4611C51.7831 34.3124 51.723 34.1478 51.7124 33.9672H52.46C52.4741 34.0805 52.5289 34.1743 52.6243 34.2487C52.7233 34.323 52.8452 34.3602 52.9902 34.3602C53.1315 34.3602 53.2411 34.3319 53.3189 34.2752C53.4002 34.2186 53.4408 34.146 53.4408 34.0575C53.4408 33.9619 53.3913 33.8911 53.2924 33.8451C53.1969 33.7955 53.0432 33.7424 52.8311 33.6858C52.612 33.6327 52.4317 33.5778 52.2903 33.5212C52.1525 33.4645 52.0323 33.3778 51.9298 33.261C51.8308 33.1441 51.7814 32.9866 51.7814 32.7883C51.7814 32.6255 51.8273 32.4768 51.9192 32.3423C52.0146 32.2077 52.149 32.1015 52.3221 32.0237C52.4989 31.9458 52.7056 31.9068 52.9424 31.9068C53.2924 31.9068 53.5716 31.9953 53.7801 32.1723C53.9887 32.3458 54.1035 32.5812 54.1247 32.8786H53.4143C53.4037 32.7618 53.3542 32.6697 53.2659 32.6025C53.181 32.5317 53.0662 32.4963 52.9212 32.4963C52.7869 32.4963 52.6827 32.5211 52.6084 32.5706C52.5377 32.6202 52.5024 32.6892 52.5024 32.7777C52.5024 32.8769 52.5519 32.953 52.6508 33.0061C52.7498 33.0556 52.9036 33.107 53.1121 33.1601C53.3242 33.2132 53.4991 33.268 53.637 33.3247C53.7748 33.3813 53.8932 33.4698 53.9922 33.5902C54.0947 33.707 54.1477 33.8628 54.1512 34.0575C54.1512 34.2274 54.1035 34.3797 54.0081 34.5142C53.9162 34.6487 53.7819 34.7549 53.6052 34.8328C53.432 34.9072 53.2287 34.9443 52.9955 34.9443Z" fill="white"/>
<path d="M55.6247 32.5653V33.9885C55.6247 34.0876 55.6477 34.1602 55.6936 34.2062C55.7431 34.2487 55.8244 34.2699 55.9375 34.2699H56.2821V34.8966H55.8156C55.19 34.8966 54.8772 34.5921 54.8772 33.9832V32.5653H54.5273V31.9546H54.8772V31.2271H55.6247V31.9546H56.2821V32.5653H55.6247Z" fill="white"/>
<path d="M59.5464 33.3619C59.5464 33.4681 59.5393 33.5637 59.5252 33.6486H57.378C57.3957 33.861 57.4699 34.0274 57.6007 34.1478C57.7314 34.2682 57.8922 34.3283 58.0831 34.3283C58.3588 34.3283 58.555 34.2097 58.6716 33.9726H59.4722C59.3873 34.2558 59.2248 34.4894 58.9844 34.6735C58.7441 34.8541 58.4489 34.9443 58.099 34.9443C57.8163 34.9443 57.5618 34.8824 57.3356 34.7585C57.1129 34.631 56.9379 34.4523 56.8107 34.2221C56.687 33.992 56.6251 33.7265 56.6251 33.4256C56.6251 33.1211 56.687 32.8538 56.8107 32.6237C56.9344 32.3936 57.1076 32.2166 57.3303 32.0927C57.5529 31.9688 57.8092 31.9068 58.099 31.9068C58.3782 31.9068 58.6274 31.967 58.8466 32.0874C59.0692 32.2077 59.2407 32.3794 59.3608 32.6025C59.4845 32.822 59.5464 33.0751 59.5464 33.3619ZM58.7776 33.1494C58.7741 32.9583 58.7052 32.806 58.5709 32.6928C58.4366 32.5759 58.2722 32.5175 58.0778 32.5175C57.894 32.5175 57.7385 32.5742 57.6113 32.6875C57.4875 32.7972 57.4116 32.9512 57.3833 33.1494H58.7776Z" fill="white"/>
<path d="M63.7358 31.9121C64.0963 31.9121 64.3861 32.0237 64.6053 32.2467C64.8279 32.4662 64.9393 32.7742 64.9393 33.1707V34.8966H64.197V33.2716C64.197 33.0415 64.1387 32.8662 64.0221 32.7459C63.9054 32.622 63.7464 32.56 63.5449 32.56C63.3434 32.56 63.1826 32.622 63.0625 32.7459C62.9458 32.8662 62.8875 33.0415 62.8875 33.2716V34.8966H62.1452V33.2716C62.1452 33.0415 62.0869 32.8662 61.9703 32.7459C61.8537 32.622 61.6946 32.56 61.4931 32.56C61.2881 32.56 61.1255 32.622 61.0054 32.7459C60.8887 32.8662 60.8304 33.0415 60.8304 33.2716V34.8966H60.0882V31.9546H60.8304V32.3104C60.9258 32.1865 61.0478 32.0891 61.1962 32.0183C61.3482 31.9475 61.5143 31.9121 61.6946 31.9121C61.9243 31.9121 62.1293 31.9617 62.3096 32.0608C62.4899 32.1564 62.6295 32.2945 62.7284 32.475C62.8239 32.3051 62.9617 32.1688 63.142 32.0661C63.3258 31.9635 63.5237 31.9121 63.7358 31.9121Z" fill="white"/>
<path d="M15.9052 48.5517C15.9052 47.7138 15.2271 47.0345 14.3905 47.0345C13.5539 47.0345 12.8757 47.7138 12.8757 48.5517C12.8757 49.3897 13.5539 50.069 14.3905 50.069C15.2271 50.069 15.9052 49.3897 15.9052 48.5517Z" fill="white"/>
<path d="M23.4792 53.4828C23.4792 52.6448 22.801 51.9655 21.9644 51.9655C21.1278 51.9655 20.4496 52.6448 20.4496 53.4828C20.4496 54.3207 21.1278 55 21.9644 55C22.801 55 23.4792 54.3207 23.4792 53.4828Z" fill="white"/>
<path d="M15.1479 48.5517C15.1479 48.1327 14.8088 47.7931 14.3905 47.7931C13.9722 47.7931 13.6331 48.1327 13.6331 48.5517C13.6331 48.9707 13.9722 49.3103 14.3905 49.3103C14.8088 49.3103 15.1479 48.9707 15.1479 48.5517Z" fill="white"/>
<path d="M22.7218 53.4828C22.7218 53.0638 22.3827 52.7241 21.9644 52.7241C21.5461 52.7241 21.207 53.0638 21.207 53.4828C21.207 53.9017 21.5461 54.2414 21.9644 54.2414C22.3827 54.2414 22.7218 53.9017 22.7218 53.4828Z" fill="white"/>
<path d="M0.623735 28.9391C0.968215 28.9391 1.24747 28.6594 1.24747 28.3144C1.24747 27.9694 0.968215 27.6897 0.623735 27.6897C0.279256 27.6897 1.50577e-08 27.9694 0 28.3144C-1.50577e-08 28.6594 0.279256 28.9391 0.623735 28.9391Z" fill="white"/>
<path d="M1.57048 29.9655C2.3271 29.9655 2.94047 29.3711 2.94047 28.6379C2.94047 27.9047 2.3271 27.3103 1.57048 27.3103C0.813854 27.3103 0.200489 27.9047 0.200489 28.6379C0.200489 29.3711 0.813854 29.9655 1.57048 29.9655Z" fill="white"/>
<path d="M1.57047 29.169C1.87312 29.169 2.11847 28.9312 2.11847 28.6379C2.11847 28.3446 1.87312 28.1069 1.57047 28.1069C1.26782 28.1069 1.02248 28.3446 1.02248 28.6379C1.02248 28.9312 1.26782 29.169 1.57047 29.169Z" fill="white"/>
<path d="M4.97875 21.2414C5.73537 21.2414 6.34874 20.647 6.34874 19.9138C6.34874 19.1806 5.73537 18.5862 4.97875 18.5862C4.22212 18.5862 3.60876 19.1806 3.60876 19.9138C3.60876 20.647 4.22212 21.2414 4.97875 21.2414Z" fill="white"/>
<path d="M4.97874 20.4448C5.28139 20.4448 5.52674 20.2071 5.52674 19.9138C5.52674 19.6205 5.28139 19.3827 4.97874 19.3827C4.67609 19.3827 4.43074 19.6205 4.43074 19.9138C4.43074 20.2071 4.67609 20.4448 4.97874 20.4448Z" fill="white"/>
<path d="M4.60005 38.6897C5.35667 38.6897 5.97004 38.0953 5.97004 37.3621C5.97004 36.6289 5.35667 36.0345 4.60005 36.0345C3.84343 36.0345 3.23006 36.6289 3.23006 37.3621C3.23006 38.0953 3.84343 38.6897 4.60005 38.6897Z" fill="white"/>
<path d="M4.60004 37.8931C4.90269 37.8931 5.14804 37.6553 5.14804 37.3621C5.14804 37.0688 4.90269 36.831 4.60004 36.831C4.29739 36.831 4.05205 37.0688 4.05205 37.3621C4.05205 37.6553 4.29739 37.8931 4.60004 37.8931Z" fill="white"/>
<path d="M14.4462 49.6897C15.2028 49.6897 15.8161 49.0953 15.8161 48.3621C15.8161 47.6289 15.2028 47.0345 14.4462 47.0345C13.6895 47.0345 13.0762 47.6289 13.0762 48.3621C13.0762 49.0953 13.6895 49.6897 14.4462 49.6897Z" fill="white"/>
<path d="M14.4461 48.8931C14.7488 48.8931 14.9941 48.6553 14.9941 48.3621C14.9941 48.0688 14.7488 47.831 14.4461 47.831C14.1435 47.831 13.8982 48.0688 13.8982 48.3621C13.8982 48.6553 14.1435 48.8931 14.4461 48.8931Z" fill="white"/>
<path d="M15.9052 3.7931C15.9052 4.63105 15.2271 5.31034 14.3905 5.31034C13.5539 5.31034 12.8757 4.63105 12.8757 3.7931C12.8757 2.95515 13.5539 2.27586 14.3905 2.27586C15.2271 2.27586 15.9052 2.95515 15.9052 3.7931Z" fill="white"/>
<path d="M6.43784 20.1034C6.43784 20.9414 5.75965 21.6207 4.92305 21.6207C4.08646 21.6207 3.40827 20.9414 3.40827 20.1034C3.40827 19.2655 4.08646 18.5862 4.92305 18.5862C5.75965 18.5862 6.43784 19.2655 6.43784 20.1034Z" fill="white"/>
<path d="M3.02957 28.4483C3.02957 29.2862 2.35138 29.9655 1.51479 29.9655C0.678193 29.9655 2.72643e-08 29.2862 2.72643e-08 28.4483C2.72643e-08 27.6103 0.678193 26.931 1.51479 26.931C2.35138 26.931 3.02957 27.6103 3.02957 28.4483Z" fill="white"/>
<path d="M6.05914 37.5517C6.05914 38.3897 5.38095 39.069 4.54436 39.069C3.70776 39.069 3.02957 38.3897 3.02957 37.5517C3.02957 36.7138 3.70776 36.0345 4.54436 36.0345C5.38095 36.0345 6.05914 36.7138 6.05914 37.5517Z" fill="white"/>
<path d="M15.9052 48.5517C15.9052 49.3897 15.2271 50.069 14.3905 50.069C13.5539 50.069 12.8757 49.3897 12.8757 48.5517C12.8757 47.7138 13.5539 47.0345 14.3905 47.0345C15.2271 47.0345 15.9052 47.7138 15.9052 48.5517Z" fill="white"/>
<path d="M23.4792 5.68966C23.4792 6.5276 22.801 7.2069 21.9644 7.2069C21.1278 7.2069 20.4496 6.5276 20.4496 5.68966C20.4496 4.85171 21.1278 4.17241 21.9644 4.17241C22.801 4.17241 23.4792 4.85171 23.4792 5.68966Z" fill="white"/>
<path d="M15.1512 3.79309C15.153 4.21206 14.8154 4.55319 14.3971 4.55504C13.9788 4.55688 13.6382 4.21873 13.6364 3.79976C13.6346 3.38079 13.9722 3.03966 14.3905 3.03781C14.8087 3.03597 15.1493 3.37412 15.1512 3.79309Z" fill="white"/>
<path d="M5.68376 20.1034C5.68561 20.5224 5.348 20.8635 4.92971 20.8654C4.51142 20.8672 4.17083 20.5291 4.16899 20.1101C4.16715 19.6911 4.50475 19.35 4.92305 19.3482C5.34134 19.3463 5.68192 19.6845 5.68376 20.1034Z" fill="white"/>
<path d="M2.2755 28.4483C2.27734 28.8672 1.93974 29.2084 1.52144 29.2102C1.10315 29.2121 0.762567 28.8739 0.760726 28.4549C0.758885 28.036 1.09649 27.6948 1.51478 27.693C1.93307 27.6911 2.27366 28.0293 2.2755 28.4483Z" fill="white"/>
<path d="M5.30507 37.5517C5.30691 37.9707 4.96931 38.3118 4.55102 38.3137C4.13272 38.3155 3.79214 37.9774 3.7903 37.5584C3.78846 37.1394 4.12606 36.7983 4.54435 36.7964C4.96264 36.7946 5.30323 37.1327 5.30507 37.5517Z" fill="white"/>
<path d="M15.1512 48.5517C15.153 48.9707 14.8154 49.3118 14.3971 49.3137C13.9788 49.3155 13.6382 48.9774 13.6364 48.5584C13.6346 48.1394 13.9722 47.7983 14.3905 47.7964C14.8087 47.7946 15.1493 48.1327 15.1512 48.5517Z" fill="white"/>
<path d="M33.704 51.2069C33.704 50.3689 33.0258 49.6897 32.1892 49.6897C31.3526 49.6897 30.6744 50.3689 30.6744 51.2069C30.6744 52.0448 31.3526 52.7241 32.1892 52.7241C33.0258 52.7241 33.704 52.0448 33.704 51.2069Z" fill="white"/>
<path d="M39.7631 52.7241C39.7631 51.8862 39.0849 51.2069 38.2483 51.2069C37.4117 51.2069 36.7336 51.8862 36.7336 52.7241C36.7336 53.5621 37.4117 54.2414 38.2483 54.2414C39.0849 54.2414 39.7631 53.5621 39.7631 52.7241Z" fill="white"/>
<path d="M22.7251 5.68964C22.7269 6.10861 22.3893 6.44975 21.9711 6.45159C21.5528 6.45343 21.2122 6.11529 21.2103 5.69632C21.2085 5.27734 21.5461 4.93621 21.9644 4.93436C22.3827 4.93252 22.7233 5.27067 22.7251 5.68964Z" fill="white"/>
<path d="M33.7931 1.56187C33.7931 2.42446 33.0949 3.12373 32.2337 3.12373C31.3725 3.12373 30.6744 2.42446 30.6744 1.56187C30.6744 0.699271 31.3725 0 32.2337 0C33.0949 0 33.7931 0.699271 33.7931 1.56187Z" fill="white"/>
<path d="M32.9466 1.51724C32.9466 1.93622 32.6075 2.27586 32.1892 2.27586C31.7709 2.27586 31.4318 1.93622 31.4318 1.51724C31.4318 1.09827 31.7709 0.758621 32.1892 0.758621C32.6075 0.758621 32.9466 1.09827 32.9466 1.51724Z" fill="white"/>
<path d="M32.9466 51.2069C32.9466 50.7879 32.6075 50.4483 32.1892 50.4483C31.7709 50.4483 31.4318 50.7879 31.4318 51.2069C31.4318 51.6259 31.7709 51.9655 32.1892 51.9655C32.6075 51.9655 32.9466 51.6259 32.9466 51.2069Z" fill="white"/>
<path d="M39.0057 52.7241C39.0057 52.3052 38.6666 51.9655 38.2483 51.9655C37.83 51.9655 37.4909 52.3052 37.4909 52.7241C37.4909 53.1431 37.83 53.4828 38.2483 53.4828C38.6666 53.4828 39.0057 53.1431 39.0057 52.7241Z" fill="white"/>
<path d="M40.6096 6.87221C40.6096 7.73481 39.9115 8.43408 39.0503 8.43408C38.1891 8.43408 37.4909 7.73481 37.4909 6.87221C37.4909 6.00962 38.1891 5.31034 39.0503 5.31034C39.9115 5.31034 40.6096 6.00962 40.6096 6.87221Z" fill="white"/>
<path d="M39.7631 6.82759C39.7631 7.24656 39.424 7.58621 39.0057 7.58621C38.5874 7.58621 38.2483 7.24656 38.2483 6.82759C38.2483 6.40861 38.5874 6.06897 39.0057 6.06897C39.424 6.06897 39.7631 6.40861 39.7631 6.82759Z" fill="white"/>
<path d="M27.2661 10.2414L43.5518 19.4931L43.541 38.0808L27.2661 47.2241L10.8007 38.0617L10.8115 19.474L27.2661 10.2414Z" fill="white"/>
<path d="M37.4909 23.4956L27.2661 17.6379L17.6094 23.4956L27.2661 29.3966L37.4909 23.4956Z" fill="#63BAD6"/>
<path d="M17.5898 34.979L27.2661 40.5862V29.2364L17.6094 23.5172L17.5898 34.979Z" fill="#00ABCF"/>
<path d="M27.2661 29.2632L37.4909 23.5172L37.3205 35.0092L27.2661 40.5862L27.2661 29.2632Z" fill="#0254D1"/>
<path d="M13.6331 4.93103H15.1479V18.2069H13.6331V4.93103Z" fill="white"/>
<path d="M13.6331 19.3448V20.8621H6.05914V19.3448H13.6331Z" fill="white"/>
<path d="M13.6331 27.6897V29.2069H2.27218V27.6897H13.6331Z" fill="white"/>
<path d="M15.5266 36.7931V38.3103H5.68045V36.7931H15.5266Z" fill="white"/>
<path d="M13.6331 36.7931H15.1479V47.4138H13.6331V36.7931Z" fill="white"/>
<path d="M21.207 39.8276H22.7218V52.3448H21.207V39.8276Z" fill="white"/>
<path d="M31.4318 39.8276H32.9466V50.4483H31.4318V39.8276Z" fill="white"/>
<path d="M37.4909 40.2069H39.0057V51.9655H37.4909V40.2069Z" fill="white"/>
<path d="M21.207 6.82759H22.7218V20.1034H21.207V6.82759Z" fill="white"/>
<path d="M31.4318 2.65517H32.9466V16.3103H31.4318V2.65517Z" fill="white"/>
<path d="M38.2483 7.96552H39.7631V21.6207H38.2483V7.96552Z" fill="white"/>
</svg>
