<svg width="196" height="145" viewBox="0 0 196 145" fill="none" xmlns="http://www.w3.org/2000/svg">
<path d="M128.072 59.228V69H126.112V64.842H121.926V69H119.966V59.228H121.926V63.246H126.112V59.228H128.072ZM129.497 65.094C129.497 64.31 129.651 63.6147 129.959 63.008C130.276 62.4013 130.701 61.9347 131.233 61.608C131.774 61.2813 132.376 61.118 133.039 61.118C133.618 61.118 134.122 61.2347 134.551 61.468C134.99 61.7013 135.34 61.9953 135.601 62.35V61.244H137.575V69H135.601V67.866C135.349 68.23 134.999 68.5333 134.551 68.776C134.112 69.0093 133.604 69.126 133.025 69.126C132.372 69.126 131.774 68.958 131.233 68.622C130.701 68.286 130.276 67.8147 129.959 67.208C129.651 66.592 129.497 65.8873 129.497 65.094ZM135.601 65.122C135.601 64.646 135.508 64.24 135.321 63.904C135.134 63.5587 134.882 63.2973 134.565 63.12C134.248 62.9333 133.907 62.84 133.543 62.84C133.179 62.84 132.843 62.9287 132.535 63.106C132.227 63.2833 131.975 63.5447 131.779 63.89C131.592 64.226 131.499 64.6273 131.499 65.094C131.499 65.5607 131.592 65.9713 131.779 66.326C131.975 66.6713 132.227 66.9373 132.535 67.124C132.852 67.3107 133.188 67.404 133.543 67.404C133.907 67.404 134.248 67.3153 134.565 67.138C134.882 66.9513 135.134 66.69 135.321 66.354C135.508 66.0087 135.601 65.598 135.601 65.122ZM141.449 62.448C141.701 62.0373 142.028 61.7153 142.429 61.482C142.84 61.2487 143.307 61.132 143.829 61.132V63.19H143.311C142.695 63.19 142.229 63.3347 141.911 63.624C141.603 63.9133 141.449 64.4173 141.449 65.136V69H139.489V61.244H141.449V62.448ZM144.646 65.094C144.646 64.31 144.8 63.6147 145.108 63.008C145.425 62.4013 145.854 61.9347 146.396 61.608C146.937 61.2813 147.539 61.118 148.202 61.118C148.706 61.118 149.186 61.23 149.644 61.454C150.101 61.6687 150.465 61.958 150.736 62.322V58.64H152.724V69H150.736V67.852C150.493 68.2347 150.152 68.5427 149.714 68.776C149.275 69.0093 148.766 69.126 148.188 69.126C147.534 69.126 146.937 68.958 146.396 68.622C145.854 68.286 145.425 67.8147 145.108 67.208C144.8 66.592 144.646 65.8873 144.646 65.094ZM150.75 65.122C150.75 64.646 150.656 64.24 150.47 63.904C150.283 63.5587 150.031 63.2973 149.714 63.12C149.396 62.9333 149.056 62.84 148.692 62.84C148.328 62.84 147.992 62.9287 147.684 63.106C147.376 63.2833 147.124 63.5447 146.928 63.89C146.741 64.226 146.648 64.6273 146.648 65.094C146.648 65.5607 146.741 65.9713 146.928 66.326C147.124 66.6713 147.376 66.9373 147.684 67.124C148.001 67.3107 148.337 67.404 148.692 67.404C149.056 67.404 149.396 67.3153 149.714 67.138C150.031 66.9513 150.283 66.69 150.47 66.354C150.656 66.0087 150.75 65.598 150.75 65.122ZM165.39 61.244L163.122 69H161.008L159.594 63.582L158.18 69H156.052L153.77 61.244H155.758L157.13 67.152L158.614 61.244H160.686L162.142 67.138L163.514 61.244H165.39ZM165.946 65.094C165.946 64.31 166.1 63.6147 166.408 63.008C166.726 62.4013 167.15 61.9347 167.682 61.608C168.224 61.2813 168.826 61.118 169.488 61.118C170.067 61.118 170.571 61.2347 171 61.468C171.439 61.7013 171.789 61.9953 172.05 62.35V61.244H174.024V69H172.05V67.866C171.798 68.23 171.448 68.5333 171 68.776C170.562 69.0093 170.053 69.126 169.474 69.126C168.821 69.126 168.224 68.958 167.682 68.622C167.15 68.286 166.726 67.8147 166.408 67.208C166.1 66.592 165.946 65.8873 165.946 65.094ZM172.05 65.122C172.05 64.646 171.957 64.24 171.77 63.904C171.584 63.5587 171.332 63.2973 171.014 63.12C170.697 62.9333 170.356 62.84 169.992 62.84C169.628 62.84 169.292 62.9287 168.984 63.106C168.676 63.2833 168.424 63.5447 168.228 63.89C168.042 64.226 167.948 64.6273 167.948 65.094C167.948 65.5607 168.042 65.9713 168.228 66.326C168.424 66.6713 168.676 66.9373 168.984 67.124C169.302 67.3107 169.638 67.404 169.992 67.404C170.356 67.404 170.697 67.3153 171.014 67.138C171.332 66.9513 171.584 66.69 171.77 66.354C171.957 66.0087 172.05 65.598 172.05 65.122ZM177.899 62.448C178.151 62.0373 178.477 61.7153 178.879 61.482C179.289 61.2487 179.756 61.132 180.279 61.132V63.19H179.761C179.145 63.19 178.678 63.3347 178.361 63.624C178.053 63.9133 177.899 64.4173 177.899 65.136V69H175.939V61.244H177.899V62.448ZM188.809 64.954C188.809 65.234 188.79 65.486 188.753 65.71H183.083C183.129 66.27 183.325 66.7087 183.671 67.026C184.016 67.3433 184.441 67.502 184.945 67.502C185.673 67.502 186.191 67.1893 186.499 66.564H188.613C188.389 67.3107 187.959 67.9267 187.325 68.412C186.69 68.888 185.911 69.126 184.987 69.126C184.24 69.126 183.568 68.9627 182.971 68.636C182.383 68.3 181.921 67.8287 181.585 67.222C181.258 66.6153 181.095 65.9153 181.095 65.122C181.095 64.3193 181.258 63.6147 181.585 63.008C181.911 62.4013 182.369 61.9347 182.957 61.608C183.545 61.2813 184.221 61.118 184.987 61.118C185.724 61.118 186.382 61.2767 186.961 61.594C187.549 61.9113 188.001 62.364 188.319 62.952C188.645 63.5307 188.809 64.198 188.809 64.954ZM186.779 64.394C186.769 63.89 186.587 63.4887 186.233 63.19C185.878 62.882 185.444 62.728 184.931 62.728C184.445 62.728 184.035 62.8773 183.699 63.176C183.372 63.4653 183.171 63.8713 183.097 64.394H186.779Z" fill="black"/>
<path d="M121.926 71.81V74.26H125.216V75.814H121.926V78.404H125.636V80H119.966V70.214H125.636V71.81H121.926ZM137.049 72.132C138.001 72.132 138.767 72.426 139.345 73.014C139.933 73.5927 140.227 74.4047 140.227 75.45V80H138.267V75.716C138.267 75.1093 138.113 74.6473 137.805 74.33C137.497 74.0033 137.077 73.84 136.545 73.84C136.013 73.84 135.589 74.0033 135.271 74.33C134.963 74.6473 134.809 75.1093 134.809 75.716V80H132.849V75.716C132.849 75.1093 132.695 74.6473 132.387 74.33C132.079 74.0033 131.659 73.84 131.127 73.84C130.586 73.84 130.157 74.0033 129.839 74.33C129.531 74.6473 129.377 75.1093 129.377 75.716V80H127.417V72.244H129.377V73.182C129.629 72.8553 129.951 72.5987 130.343 72.412C130.745 72.2253 131.183 72.132 131.659 72.132C132.266 72.132 132.807 72.2627 133.283 72.524C133.759 72.776 134.128 73.14 134.389 73.616C134.641 73.168 135.005 72.8087 135.481 72.538C135.967 72.2673 136.489 72.132 137.049 72.132ZM144.047 73.378C144.299 73.0047 144.644 72.7013 145.083 72.468C145.531 72.2347 146.04 72.118 146.609 72.118C147.272 72.118 147.869 72.2813 148.401 72.608C148.942 72.9347 149.367 73.4013 149.675 74.008C149.992 74.6053 150.151 75.3007 150.151 76.094C150.151 76.8873 149.992 77.592 149.675 78.208C149.367 78.8147 148.942 79.286 148.401 79.622C147.869 79.958 147.272 80.126 146.609 80.126C146.03 80.126 145.522 80.014 145.083 79.79C144.654 79.5567 144.308 79.258 144.047 78.894V80H142.087V69.64H144.047V73.378ZM148.149 76.094C148.149 75.6273 148.051 75.226 147.855 74.89C147.668 74.5447 147.416 74.2833 147.099 74.106C146.791 73.9287 146.455 73.84 146.091 73.84C145.736 73.84 145.4 73.9333 145.083 74.12C144.775 74.2973 144.523 74.5587 144.327 74.904C144.14 75.2493 144.047 75.6553 144.047 76.122C144.047 76.5887 144.14 76.9947 144.327 77.34C144.523 77.6853 144.775 77.9513 145.083 78.138C145.4 78.3153 145.736 78.404 146.091 78.404C146.455 78.404 146.791 78.3107 147.099 78.124C147.416 77.9373 147.668 77.6713 147.855 77.326C148.051 76.9807 148.149 76.57 148.149 76.094ZM158.785 75.954C158.785 76.234 158.767 76.486 158.729 76.71H153.059C153.106 77.27 153.302 77.7087 153.647 78.026C153.993 78.3433 154.417 78.502 154.921 78.502C155.649 78.502 156.167 78.1893 156.475 77.564H158.589C158.365 78.3107 157.936 78.9267 157.301 79.412C156.667 79.888 155.887 80.126 154.963 80.126C154.217 80.126 153.545 79.9627 152.947 79.636C152.359 79.3 151.897 78.8287 151.561 78.222C151.235 77.6153 151.071 76.9153 151.071 76.122C151.071 75.3193 151.235 74.6147 151.561 74.008C151.888 73.4013 152.345 72.9347 152.933 72.608C153.521 72.2813 154.198 72.118 154.963 72.118C155.701 72.118 156.359 72.2767 156.937 72.594C157.525 72.9113 157.978 73.364 158.295 73.952C158.622 74.5307 158.785 75.198 158.785 75.954ZM156.755 75.394C156.746 74.89 156.564 74.4887 156.209 74.19C155.855 73.882 155.421 73.728 154.907 73.728C154.422 73.728 154.011 73.8773 153.675 74.176C153.349 74.4653 153.148 74.8713 153.073 75.394H156.755ZM159.712 76.094C159.712 75.31 159.866 74.6147 160.174 74.008C160.491 73.4013 160.921 72.9347 161.462 72.608C162.003 72.2813 162.605 72.118 163.268 72.118C163.772 72.118 164.253 72.23 164.71 72.454C165.167 72.6687 165.531 72.958 165.802 73.322V69.64H167.79V80H165.802V78.852C165.559 79.2347 165.219 79.5427 164.78 79.776C164.341 80.0093 163.833 80.126 163.254 80.126C162.601 80.126 162.003 79.958 161.462 79.622C160.921 79.286 160.491 78.8147 160.174 78.208C159.866 77.592 159.712 76.8873 159.712 76.094ZM165.816 76.122C165.816 75.646 165.723 75.24 165.536 74.904C165.349 74.5587 165.097 74.2973 164.78 74.12C164.463 73.9333 164.122 73.84 163.758 73.84C163.394 73.84 163.058 73.9287 162.75 74.106C162.442 74.2833 162.19 74.5447 161.994 74.89C161.807 75.226 161.714 75.6273 161.714 76.094C161.714 76.5607 161.807 76.9713 161.994 77.326C162.19 77.6713 162.442 77.9373 162.75 78.124C163.067 78.3107 163.403 78.404 163.758 78.404C164.122 78.404 164.463 78.3153 164.78 78.138C165.097 77.9513 165.349 77.69 165.536 77.354C165.723 77.0087 165.816 76.598 165.816 76.122ZM169.2 76.094C169.2 75.31 169.354 74.6147 169.662 74.008C169.98 73.4013 170.409 72.9347 170.95 72.608C171.492 72.2813 172.094 72.118 172.756 72.118C173.26 72.118 173.741 72.23 174.198 72.454C174.656 72.6687 175.02 72.958 175.29 73.322V69.64H177.278V80H175.29V78.852C175.048 79.2347 174.707 79.5427 174.268 79.776C173.83 80.0093 173.321 80.126 172.742 80.126C172.089 80.126 171.492 79.958 170.95 79.622C170.409 79.286 169.98 78.8147 169.662 78.208C169.354 77.592 169.2 76.8873 169.2 76.094ZM175.304 76.122C175.304 75.646 175.211 75.24 175.024 74.904C174.838 74.5587 174.586 74.2973 174.268 74.12C173.951 73.9333 173.61 73.84 173.246 73.84C172.882 73.84 172.546 73.9287 172.238 74.106C171.93 74.2833 171.678 74.5447 171.482 74.89C171.296 75.226 171.202 75.6273 171.202 76.094C171.202 76.5607 171.296 76.9713 171.482 77.326C171.678 77.6713 171.93 77.9373 172.238 78.124C172.556 78.3107 172.892 78.404 173.246 78.404C173.61 78.404 173.951 78.3153 174.268 78.138C174.586 77.9513 174.838 77.69 175.024 77.354C175.211 77.0087 175.304 76.598 175.304 76.122ZM186.403 75.954C186.403 76.234 186.384 76.486 186.347 76.71H180.677C180.723 77.27 180.919 77.7087 181.265 78.026C181.61 78.3433 182.035 78.502 182.539 78.502C183.267 78.502 183.785 78.1893 184.093 77.564H186.207C185.983 78.3107 185.553 78.9267 184.919 79.412C184.284 79.888 183.505 80.126 182.581 80.126C181.834 80.126 181.162 79.9627 180.565 79.636C179.977 79.3 179.515 78.8287 179.179 78.222C178.852 77.6153 178.689 76.9153 178.689 76.122C178.689 75.3193 178.852 74.6147 179.179 74.008C179.505 73.4013 179.963 72.9347 180.551 72.608C181.139 72.2813 181.815 72.118 182.581 72.118C183.318 72.118 183.976 72.2767 184.555 72.594C185.143 72.9113 185.595 73.364 185.913 73.952C186.239 74.5307 186.403 75.198 186.403 75.954ZM184.373 75.394C184.363 74.89 184.181 74.4887 183.827 74.19C183.472 73.882 183.038 73.728 182.525 73.728C182.039 73.728 181.629 73.8773 181.293 74.176C180.966 74.4653 180.765 74.8713 180.691 75.394H184.373ZM187.329 76.094C187.329 75.31 187.483 74.6147 187.791 74.008C188.109 73.4013 188.538 72.9347 189.079 72.608C189.621 72.2813 190.223 72.118 190.885 72.118C191.389 72.118 191.87 72.23 192.327 72.454C192.785 72.6687 193.149 72.958 193.419 73.322V69.64H195.407V80H193.419V78.852C193.177 79.2347 192.836 79.5427 192.397 79.776C191.959 80.0093 191.45 80.126 190.871 80.126C190.218 80.126 189.621 79.958 189.079 79.622C188.538 79.286 188.109 78.8147 187.791 78.208C187.483 77.592 187.329 76.8873 187.329 76.094ZM193.433 76.122C193.433 75.646 193.34 75.24 193.153 74.904C192.967 74.5587 192.715 74.2973 192.397 74.12C192.08 73.9333 191.739 73.84 191.375 73.84C191.011 73.84 190.675 73.9287 190.367 74.106C190.059 74.2833 189.807 74.5447 189.611 74.89C189.425 75.226 189.331 75.6273 189.331 76.094C189.331 76.5607 189.425 76.9713 189.611 77.326C189.807 77.6713 190.059 77.9373 190.367 78.124C190.685 78.3107 191.021 78.404 191.375 78.404C191.739 78.404 192.08 78.3153 192.397 78.138C192.715 77.9513 192.967 77.69 193.153 77.354C193.34 77.0087 193.433 76.598 193.433 76.122Z" fill="black"/>
<path d="M123.34 92.098C122.659 92.098 122.043 91.9813 121.492 91.748C120.951 91.5147 120.521 91.1787 120.204 90.74C119.887 90.3013 119.723 89.7833 119.714 89.186H121.814C121.842 89.5873 121.982 89.9047 122.234 90.138C122.495 90.3713 122.85 90.488 123.298 90.488C123.755 90.488 124.115 90.3807 124.376 90.166C124.637 89.942 124.768 89.6527 124.768 89.298C124.768 89.0087 124.679 88.7707 124.502 88.584C124.325 88.3973 124.101 88.2527 123.83 88.15C123.569 88.038 123.205 87.9167 122.738 87.786C122.103 87.5993 121.585 87.4173 121.184 87.24C120.792 87.0533 120.451 86.778 120.162 86.414C119.882 86.0407 119.742 85.546 119.742 84.93C119.742 84.3513 119.887 83.8473 120.176 83.418C120.465 82.9887 120.871 82.662 121.394 82.438C121.917 82.2047 122.514 82.088 123.186 82.088C124.194 82.088 125.011 82.3353 125.636 82.83C126.271 83.3153 126.621 83.9967 126.686 84.874H124.53C124.511 84.538 124.367 84.2627 124.096 84.048C123.835 83.824 123.485 83.712 123.046 83.712C122.663 83.712 122.355 83.81 122.122 84.006C121.898 84.202 121.786 84.4867 121.786 84.86C121.786 85.1213 121.87 85.3407 122.038 85.518C122.215 85.686 122.43 85.826 122.682 85.938C122.943 86.0407 123.307 86.162 123.774 86.302C124.409 86.4887 124.927 86.6753 125.328 86.862C125.729 87.0487 126.075 87.3287 126.364 87.702C126.653 88.0753 126.798 88.5653 126.798 89.172C126.798 89.6947 126.663 90.18 126.392 90.628C126.121 91.076 125.725 91.4353 125.202 91.706C124.679 91.9673 124.059 92.098 123.34 92.098ZM135.917 84.244L131.115 95.668H129.029L130.709 91.804L127.601 84.244H129.799L131.801 89.662L133.831 84.244H135.917ZM139.942 92.126C139.307 92.126 138.738 92.014 138.234 91.79C137.73 91.5567 137.328 91.244 137.03 90.852C136.74 90.46 136.582 90.026 136.554 89.55H138.528C138.565 89.8487 138.71 90.096 138.962 90.292C139.223 90.488 139.545 90.586 139.928 90.586C140.301 90.586 140.59 90.5113 140.796 90.362C141.01 90.2127 141.118 90.0213 141.118 89.788C141.118 89.536 140.987 89.3493 140.726 89.228C140.474 89.0973 140.068 88.9573 139.508 88.808C138.929 88.668 138.453 88.5233 138.08 88.374C137.716 88.2247 137.398 87.996 137.128 87.688C136.866 87.38 136.736 86.9647 136.736 86.442C136.736 86.0127 136.857 85.6207 137.1 85.266C137.352 84.9113 137.706 84.6313 138.164 84.426C138.63 84.2207 139.176 84.118 139.802 84.118C140.726 84.118 141.463 84.3513 142.014 84.818C142.564 85.2753 142.868 85.896 142.924 86.68H141.048C141.02 86.372 140.889 86.1293 140.656 85.952C140.432 85.7653 140.128 85.672 139.746 85.672C139.391 85.672 139.116 85.7373 138.92 85.868C138.733 85.9987 138.64 86.1807 138.64 86.414C138.64 86.6753 138.77 86.876 139.032 87.016C139.293 87.1467 139.699 87.282 140.25 87.422C140.81 87.562 141.272 87.7067 141.636 87.856C142 88.0053 142.312 88.2387 142.574 88.556C142.844 88.864 142.984 89.2747 142.994 89.788C142.994 90.236 142.868 90.6373 142.616 90.992C142.373 91.3467 142.018 91.6267 141.552 91.832C141.094 92.028 140.558 92.126 139.942 92.126ZM146.885 85.854V89.606C146.885 89.8673 146.945 90.0587 147.067 90.18C147.197 90.292 147.412 90.348 147.711 90.348H148.621V92H147.389C145.737 92 144.911 91.1973 144.911 89.592V85.854H143.987V84.244H144.911V82.326H146.885V84.244H148.621V85.854H146.885ZM157.24 87.954C157.24 88.234 157.222 88.486 157.184 88.71H151.514C151.561 89.27 151.757 89.7087 152.102 90.026C152.448 90.3433 152.872 90.502 153.376 90.502C154.104 90.502 154.622 90.1893 154.93 89.564H157.044C156.82 90.3107 156.391 90.9267 155.756 91.412C155.122 91.888 154.342 92.126 153.418 92.126C152.672 92.126 152 91.9627 151.402 91.636C150.814 91.3 150.352 90.8287 150.016 90.222C149.69 89.6153 149.526 88.9153 149.526 88.122C149.526 87.3193 149.69 86.6147 150.016 86.008C150.343 85.4013 150.8 84.9347 151.388 84.608C151.976 84.2813 152.653 84.118 153.418 84.118C154.156 84.118 154.814 84.2767 155.392 84.594C155.98 84.9113 156.433 85.364 156.75 85.952C157.077 86.5307 157.24 87.198 157.24 87.954ZM155.21 87.394C155.201 86.89 155.019 86.4887 154.664 86.19C154.31 85.882 153.876 85.728 153.362 85.728C152.877 85.728 152.466 85.8773 152.13 86.176C151.804 86.4653 151.603 86.8713 151.528 87.394H155.21ZM168.303 84.132C169.255 84.132 170.02 84.426 170.599 85.014C171.187 85.5927 171.481 86.4047 171.481 87.45V92H169.521V87.716C169.521 87.1093 169.367 86.6473 169.059 86.33C168.751 86.0033 168.331 85.84 167.799 85.84C167.267 85.84 166.842 86.0033 166.525 86.33C166.217 86.6473 166.063 87.1093 166.063 87.716V92H164.103V87.716C164.103 87.1093 163.949 86.6473 163.641 86.33C163.333 86.0033 162.913 85.84 162.381 85.84C161.84 85.84 161.41 86.0033 161.093 86.33C160.785 86.6473 160.631 87.1093 160.631 87.716V92H158.671V84.244H160.631V85.182C160.883 84.8553 161.205 84.5987 161.597 84.412C161.998 84.2253 162.437 84.132 162.913 84.132C163.52 84.132 164.061 84.2627 164.537 84.524C165.013 84.776 165.382 85.14 165.643 85.616C165.895 85.168 166.259 84.8087 166.735 84.538C167.22 84.2673 167.743 84.132 168.303 84.132Z" fill="black"/>
<circle cx="4" cy="4" r="4" transform="matrix(1 0 0 -1 34 132)" fill="black"/>
<circle cx="4" cy="4" r="4" transform="matrix(1 0 0 -1 54 145)" fill="black"/>
<circle cx="2" cy="2" r="2" transform="matrix(1 0 0 -1 36 130)" fill="white"/>
<circle cx="2" cy="2" r="2" transform="matrix(1 0 0 -1 56 143)" fill="white"/>
<ellipse cx="3.5" cy="3.61765" rx="3.5" ry="3.61765" transform="matrix(-4.37114e-08 1 1 4.37114e-08 0.529419 72)" fill="black"/>
<ellipse cx="1.4" cy="1.44706" rx="1.4" ry="1.44706" transform="matrix(-4.37114e-08 1 1 4.37114e-08 2.69998 74.0999)" fill="black"/>
<ellipse cx="3.5" cy="3.61765" rx="3.5" ry="3.61765" transform="matrix(-4.37114e-08 1 1 4.37114e-08 9.52942 49)" fill="black"/>
<ellipse cx="1.4" cy="1.44706" rx="1.4" ry="1.44706" transform="matrix(-4.37114e-08 1 1 4.37114e-08 11.7 51.0999)" fill="black"/>
<ellipse cx="3.5" cy="3.61765" rx="3.5" ry="3.61765" transform="matrix(-4.37114e-08 1 1 4.37114e-08 8.52942 95)" fill="black"/>
<ellipse cx="1.4" cy="1.44706" rx="1.4" ry="1.44706" transform="matrix(-4.37114e-08 1 1 4.37114e-08 10.7 97.0999)" fill="black"/>
<ellipse cx="3.5" cy="3.61765" rx="3.5" ry="3.61765" transform="matrix(-4.37114e-08 1 1 4.37114e-08 34.5294 124)" fill="black"/>
<ellipse cx="1.4" cy="1.44706" rx="1.4" ry="1.44706" transform="matrix(-4.37114e-08 1 1 4.37114e-08 36.7 126.1)" fill="white"/>
<circle cx="38" cy="10" r="4" fill="black"/>
<circle cx="13" cy="53" r="4" fill="black"/>
<circle cx="4" cy="75" r="4" fill="black"/>
<circle cx="12" cy="99" r="4" fill="black"/>
<circle cx="38" cy="128" r="4" fill="black"/>
<circle cx="58" cy="15" r="4" fill="black"/>
<circle cx="38.0088" cy="10.0088" r="2" transform="rotate(-0.25215 38.0088 10.0088)" fill="white"/>
<circle cx="13.0088" cy="53.0088" r="2" transform="rotate(-0.25215 13.0088 53.0088)" fill="white"/>
<circle cx="4.00878" cy="75.0088" r="2" transform="rotate(-0.25215 4.00878 75.0088)" fill="white"/>
<circle cx="12.0088" cy="99.0088" r="2" transform="rotate(-0.25215 12.0088 99.0088)" fill="white"/>
<circle cx="38.0088" cy="128.009" r="2" transform="rotate(-0.25215 38.0088 128.009)" fill="white"/>
<circle cx="4" cy="4" r="4" transform="matrix(1 0 0 -1 81 139)" fill="black"/>
<circle cx="4" cy="4" r="4" transform="matrix(1 0 0 -1 97 143)" fill="black"/>
<circle cx="58.0088" cy="15.0088" r="2" transform="rotate(-0.25215 58.0088 15.0088)" fill="white"/>
<circle cx="85.1176" cy="4.11765" r="4.11765" fill="black"/>
<circle cx="85" cy="4" r="2" fill="white"/>
<circle cx="2" cy="2" r="2" transform="matrix(1 0 0 -1 83 137)" fill="white"/>
<circle cx="2" cy="2" r="2" transform="matrix(1 0 0 -1 99 141)" fill="white"/>
<circle cx="103.118" cy="18.1176" r="4.11765" fill="black"/>
<circle cx="103" cy="18" r="2" fill="white"/>
<path d="M72 26.9999L115.005 51.3907L114.976 100.395L72 124.5L28.5207 100.344L28.5492 51.3404L72 26.9999Z" fill="black"/>
<path d="M99 61.9429L72 46.5L46.5 61.9429L72 77.5L99 61.9429Z" fill="#63BAD6"/>
<path d="M46.4482 92.2173L71.9999 107V77.0777L46.5 62L46.4482 92.2173Z" fill="#00ABCF"/>
<path d="M72 77.1485L99 62L98.55 92.297L72 107V77.1485Z" fill="#0254D1"/>
<rect x="36" y="13" width="4" height="35" fill="black"/>
<rect x="36" y="51" width="4" height="20" transform="rotate(90 36 51)" fill="black"/>
<rect x="36" y="73" width="4" height="30" transform="rotate(90 36 73)" fill="black"/>
<rect x="41" y="97" width="4" height="26" transform="rotate(90 41 97)" fill="black"/>
<rect x="36" y="97" width="4" height="28" fill="black"/>
<rect x="56" y="105" width="4" height="33" fill="black"/>
<rect x="83" y="105" width="4" height="28" fill="black"/>
<rect x="99" y="106" width="4" height="31" fill="black"/>
<rect x="56" y="18" width="4" height="35" fill="black"/>
<rect x="83" y="7" width="4" height="36" fill="black"/>
<rect x="101" y="21" width="4" height="36" fill="black"/>
</svg>
