<svg width="95" height="130" viewBox="0 0 95 130" fill="none" xmlns="http://www.w3.org/2000/svg">
<path fill-rule="evenodd" clip-rule="evenodd" d="M62.5798 97.8998C61.4644 97.9146 60.9885 98.8962 60.9736 100.205C60.9588 101.484 60.8844 104.473 61.0331 105.648C61.1372 106.451 61.6429 106.897 62.1634 107.18C62.9962 107.611 64.3644 107.626 65.3013 107.135C65.7177 106.927 66.5208 106.481 66.5505 105.574C66.5951 103.908 66.4761 101.201 66.491 99.8777C66.5059 98.911 66.0151 97.8403 64.6767 97.8849C64.0521 97.8998 63.368 97.8849 62.5798 97.8998ZM60.81 94.7619C58.3711 94.747 56.5716 96.8439 56.5419 99.6844C56.527 101.424 56.5716 103.655 56.5419 105.559C56.4973 108.459 58.5644 110.481 60.8993 110.496C62.3121 110.511 65.1079 110.437 66.2977 110.541C68.3053 110.689 70.9079 108.236 70.8781 106.035C70.8335 103.685 70.8335 101.231 70.8633 99.5654C70.9079 97.3793 69.6289 94.9849 66.6992 94.7172C65.2864 94.5834 62.7582 94.7767 60.81 94.7619ZM19.6454 104.399C21.1177 104.488 24.3597 104.458 25.3412 104.443C27.7504 104.399 28.4494 103.744 29.0145 102.569C29.8325 100.889 29.8176 97.6916 28.2412 96.0706C27.5274 95.3419 26.873 94.6875 25.0884 94.6131C23.3931 94.5537 21.2664 94.5537 19.7049 94.6726C16.2844 94.9254 15.1244 97.3049 15.2732 100.815C15.288 102.346 15.4219 104.071 15.3921 105.559C15.3326 107.373 15.6747 108.355 16.6711 109.291C17.7121 110.288 18.6788 110.556 19.8982 110.541C23.1105 110.496 25.4156 110.496 27.5125 110.496C29.4161 110.496 29.535 109.262 29.5053 108.741C29.4458 107.388 28.7617 107.09 28.033 107.046C26.2038 106.942 23.973 107.15 21.8762 107.12C20.389 107.105 19.69 106.451 19.6454 104.399ZM19.7346 100.815C21.2069 100.859 23.4972 100.859 24.6274 100.829C25.0587 100.815 25.1479 100.532 25.1628 100.368C25.2371 99.61 25.252 98.7177 24.7464 98.2716C24.4936 98.0485 24.0623 97.8403 23.5269 97.8254C22.7238 97.8105 21.3259 97.8254 20.8203 97.87C20.0023 97.9295 19.7495 98.331 19.7495 98.8813C19.7495 99.3721 19.7198 100.145 19.7346 100.815ZM42.3246 89.3188H43.3062C44.2431 89.3188 45.0164 90.0922 45.0164 91.0291V101.558L49.701 95.7136C50.2809 94.9849 50.9502 94.747 51.7532 94.6578C52.4225 94.5983 53.3148 94.6578 53.9245 94.6875C54.4153 94.7024 54.8168 94.9254 54.2665 95.6095L49.2548 101.9L54.7127 109.485C55.0547 109.961 55.0696 110.585 53.8353 110.511C53.4486 110.481 52.4671 110.511 51.2922 110.481C50.504 110.451 49.9835 109.901 49.6117 109.351L45.0164 102.733V108.726C45.0164 109.663 44.2431 110.422 43.3062 110.422H42.3246C41.3877 110.422 40.6144 109.663 40.6144 108.726V91.0291C40.6144 90.0922 41.3877 89.3188 42.3246 89.3188ZM34.4129 89.3188H35.4093C36.3462 89.3188 37.1047 90.0922 37.1047 91.0291V108.726C37.1047 109.663 36.3462 110.422 35.4093 110.422H34.4129C33.476 110.422 32.7027 109.663 32.7027 108.726V91.0291C32.7027 90.0922 33.476 89.3188 34.4129 89.3188ZM16.686 91.0291V91.8173C16.686 92.5609 16.0762 93.1557 15.3326 93.1557H10.6927V108.726C10.6927 109.663 9.93424 110.422 8.99733 110.422H8.00093C7.06402 110.422 6.29069 109.663 6.29069 108.726V93.1557H1.35332C0.609736 93.1557 0 92.5609 0 91.8173V91.0291C0 90.2855 0.609736 89.6906 1.35332 89.6906H15.3326C16.0762 89.6906 16.686 90.2855 16.686 91.0291ZM74.3432 96.7547C74.3432 100.844 74.3284 104.949 74.3284 109.039C74.3284 109.976 75.1017 110.749 76.0386 110.749H77.0201C77.957 110.749 78.7303 109.976 78.7303 109.039C78.7303 105.559 78.7303 102.108 78.7601 98.6285C78.775 98.1377 79.6673 97.9593 80.1432 97.9593C81.7195 97.9741 82.2995 98.8069 82.2995 99.9521C82.2995 102.971 82.3293 106.005 82.3293 109.039C82.3293 109.976 83.0877 110.749 84.0246 110.749H85.021C85.958 110.749 86.7313 109.976 86.7313 109.039C86.7313 105.737 86.6867 102.45 86.6718 99.149C86.6718 98.108 87.5938 97.7511 88.501 97.9593C90.1666 98.331 90.1071 99.9669 90.1071 101.246V109.039C90.1071 109.976 90.8656 110.749 91.8025 110.749H92.7989C93.7358 110.749 94.5091 109.976 94.5091 109.039C94.5091 105.901 94.5984 102.688 94.5091 99.5654C94.3753 94.5983 90.1071 94.1819 87.2072 94.6875C85.8687 94.9106 84.9764 95.8921 84.6493 95.4608C84.0246 94.6726 83.3406 94.5537 81.0652 94.6578C79.3996 94.6429 78.4775 95.4608 78.3734 95.1485C78.3288 94.9998 78.076 94.7321 77.7191 94.6875C77.1688 94.628 76.455 94.5834 75.6668 94.6875C74.953 94.7767 74.3432 95.4311 74.3432 96.7547Z" fill="white"/>
<path fill-rule="evenodd" clip-rule="evenodd" d="M73.5848 115.062H74.2838C74.6853 115.062 75.0273 115.404 75.0273 115.805V116.147C75.0273 116.564 74.6853 116.891 74.2838 116.891H73.5848C73.1684 116.891 72.8263 116.564 72.8263 116.147V115.805C72.8263 115.404 73.1684 115.062 73.5848 115.062ZM73.6443 117.739H74.0904C74.6258 117.739 75.072 118.185 75.072 118.72V125.353C75.072 125.888 74.6258 126.334 74.0904 126.334H73.6443C73.1089 126.334 72.6628 125.888 72.6628 125.353V118.72C72.6628 118.185 73.1089 117.739 73.6443 117.739ZM12.0014 124.639C11.5107 124.639 10.1276 124.684 9.80042 124.654C9.0271 124.565 8.65531 124.178 8.58095 123.033C8.49172 121.754 8.58095 119.494 8.62556 116.341C8.64043 115.255 8.19428 115.092 7.40609 115.077C6.66251 115.062 6.142 115.121 6.17174 116.356C6.20149 119.404 6.23123 121.918 6.2461 123.539C6.2461 125.531 7.10866 126.111 8.67018 126.349C10.3061 126.587 11.7486 126.453 12.8342 126.379C14.7527 126.245 15.5409 125.041 15.5111 122.988C15.4814 121.427 15.4516 118.066 15.4814 115.88C15.5111 115.181 14.9906 115.092 14.4255 115.092C13.786 115.077 13.2655 115.047 13.2209 115.924C13.1465 117.917 13.206 121.576 13.1911 122.602C13.2209 123.524 13.2506 124.654 12.0014 124.639ZM38.7406 126.364C40.5847 126.32 40.5252 125.502 41.4918 122.765C41.8488 121.769 42.5477 119.761 42.8303 118.943C43.0087 118.393 42.6667 117.932 42.1016 117.887C41.3729 117.828 40.9565 118.081 40.6739 118.72C39.9898 120.178 39.2165 122.587 38.5919 124.178C37.8334 122.215 37.0898 120.252 36.3463 118.274C36.0637 117.62 35.3796 117.664 34.874 117.813C34.3683 117.947 34.1155 118.334 34.2345 118.795C34.5617 120.044 35.5878 122.944 36.2868 124.728C36.6586 125.71 36.956 126.394 38.7406 126.364ZM55.3671 119.211C55.3671 122.051 55.3968 124.133 55.3819 125.234C55.3819 125.978 55.7835 126.334 56.4676 126.364C57.0624 126.394 57.6573 126.082 57.6275 125.517C57.7168 124.252 57.6573 122.438 57.6573 120.074C57.6573 119.642 58.3563 119.657 58.6239 119.627C59.5311 119.553 60.0368 119.731 60.8249 119.583C61.167 119.508 61.4942 118.78 61.2711 118.289C61.1224 117.977 60.6911 117.768 59.9029 117.768C58.7727 117.724 58.3116 118.006 57.7614 118.289C57.4788 118.453 57.5086 118.185 57.3896 117.977C57.226 117.679 56.7501 117.783 56.4081 117.798C55.6496 117.828 55.3671 118.11 55.3671 119.211ZM67.3536 122.914C67.5618 122.929 67.8741 123.048 67.889 123.836C67.9038 124.342 67.6956 124.431 67.0859 124.446C66.3274 124.461 64.7957 124.357 63.7547 124.505C63.1003 124.609 62.8475 124.937 62.8475 125.457C62.8475 126.052 63.2936 126.245 63.8885 126.349C65.1228 126.558 66.8182 126.379 67.532 126.379C69.0192 126.364 70.2684 125.457 70.1792 123.613C70.1048 121.888 69.4059 121.353 67.9931 121.204C67.2049 121.129 66.5059 121.263 65.8962 121.174C65.1526 121.055 64.9146 120.758 64.9741 120.088C65.0187 119.568 65.3905 119.613 65.6434 119.598C66.8033 119.523 68.1269 119.672 68.9597 119.627C69.5843 119.583 69.7479 119.018 69.7479 118.676C69.733 118.2 69.733 117.798 68.6623 117.783C68.112 117.783 66.2233 117.739 65.5244 117.754C63.7844 117.768 62.7583 118.497 62.6393 120.103C62.6095 120.46 62.6244 120.773 62.6393 121.055C62.7285 122.007 63.5018 122.75 65.1823 122.855C66.1044 122.914 66.5356 122.78 67.3536 122.914ZM79.236 123.762C79.236 124.52 79.355 124.951 79.7119 125.383C80.6488 126.558 82.4929 126.617 84.1288 126.305C84.5898 126.216 84.6493 125.65 84.6493 125.204C84.6493 124.966 84.6642 124.55 84.1288 124.639C83.8313 124.684 83.3555 124.758 82.7011 124.728C81.9873 124.699 81.556 124.446 81.556 123.554V119.642H83.5488C83.9206 119.642 84.218 119.36 84.218 118.988V118.527C84.218 118.17 83.9206 117.873 83.5488 117.873H81.556L81.5411 115.716C81.5411 115.211 81.2139 115.002 80.4257 115.002C80.1432 115.002 79.2955 114.973 79.2955 115.448L79.2806 117.873H77.8678C77.496 117.873 77.2135 118.17 77.2135 118.527V118.988C77.2135 119.36 77.496 119.642 77.8678 119.642H79.2658L79.236 123.762ZM92.6353 126.379C92.6651 127.316 92.442 127.792 91.8323 127.822C90.8061 127.881 89.4677 127.822 88.6349 127.822C88.278 127.822 87.7128 128.074 87.7277 128.729C87.7426 129.309 88.1441 129.636 88.6051 129.651C89.661 129.681 90.8656 129.606 91.9364 129.621C93.7061 129.621 94.8363 128.773 94.8661 127.019C94.9107 124.892 95.0445 119.598 94.9851 118.542C94.9404 117.887 94.3158 117.813 93.8697 117.798C93.1856 117.798 92.6948 117.858 92.68 118.453C92.6502 119.434 92.7097 121.665 92.7097 124.639C91.8025 124.639 91.0738 124.699 90.5682 124.565C89.9138 124.386 89.542 123.732 89.542 122.855C89.5569 121.977 89.6015 120.609 89.5569 118.72C89.542 118.081 89.3636 117.813 88.4564 117.783C87.8318 117.754 87.3857 117.932 87.341 118.482C87.2816 119.181 87.2816 122.394 87.341 124.059C87.3857 125.621 88.7241 126.409 90.122 126.409C91.1036 126.409 91.9066 126.379 92.6353 126.379ZM47.1133 123.048C47.8866 123.092 49.582 123.078 50.1025 123.063C51.3666 123.048 51.7384 122.706 52.0358 122.081C52.4671 121.204 52.4671 119.523 51.6343 118.661C51.2476 118.274 50.9056 117.932 49.9687 117.902C49.0764 117.873 47.961 117.873 47.1431 117.932C45.3436 118.066 44.7339 119.315 44.8082 121.159C44.8082 121.962 44.8974 122.869 44.8677 123.658C44.838 124.609 45.0164 125.13 45.5518 125.621C46.102 126.141 46.5928 126.29 47.2323 126.275C48.9277 126.245 50.1471 126.245 51.2476 126.245C52.244 126.245 52.3035 125.606 52.3035 125.323C52.2738 124.609 51.902 124.461 51.5302 124.446C50.5635 124.386 49.3887 124.49 48.2882 124.476C47.5 124.461 47.1282 124.119 47.1133 123.048ZM47.1579 121.159C47.9313 121.174 49.1359 121.189 49.7307 121.174C49.9538 121.159 49.9984 121.01 50.0133 120.921C50.0579 120.535 50.0579 120.059 49.7902 119.821C49.6564 119.702 49.4333 119.598 49.1507 119.583C48.7194 119.583 47.9907 119.598 47.723 119.613C47.2918 119.642 47.1728 119.85 47.1579 120.148C47.1579 120.401 47.1579 120.817 47.1579 121.159ZM18.768 119.077C18.768 121.204 18.7531 123.33 18.7531 125.442C18.7531 125.933 19.2439 126.334 19.8239 126.334H20.4336C21.0136 126.334 21.0582 125.933 21.0582 125.442C21.0582 123.643 21.0582 121.858 21.0731 120.059C21.0731 119.583 22.1587 119.613 22.4413 119.613C23.4228 119.613 24.0177 119.806 24.0177 120.817C24.0326 122.379 24.0326 123.955 24.0326 125.531C24.0326 126.007 24.211 126.334 24.791 126.334H25.4156C25.9956 126.334 26.4715 125.933 26.4715 125.442C26.4715 123.732 26.4715 122.289 26.4269 120.579C26.3971 119.404 25.8766 118.066 24.2408 117.798C23.6905 117.694 22.0398 117.783 21.3408 118.051C21.1475 118.125 20.9541 118.14 20.7608 118.006C20.4634 117.783 20.0916 117.739 19.6008 117.798C19.1547 117.843 18.768 118.408 18.768 119.077ZM30.3084 115.062H31.0073C31.4238 115.062 31.7658 115.404 31.7658 115.805V116.147C31.7658 116.564 31.4238 116.891 31.0073 116.891H30.3084C29.9068 116.891 29.5648 116.564 29.5648 116.147V115.805C29.5648 115.404 29.9068 115.062 30.3084 115.062ZM30.3827 117.739H30.8289C31.3643 117.739 31.7955 118.185 31.7955 118.72V125.353C31.7955 125.888 31.3643 126.334 30.8289 126.334H30.3827C29.8474 126.334 29.4012 125.888 29.4012 125.353V118.72C29.4012 118.185 29.8474 117.739 30.3827 117.739Z" fill="white"/>
<path fill-rule="evenodd" clip-rule="evenodd" d="M60.3936 53.3741L60.4234 78.2543C60.7654 78.2246 62.8177 77.2282 63.2341 77.0051C65.9854 75.6072 68.2161 73.9713 70.313 71.8893C74.5068 67.6955 77.5257 61.9104 78.195 55.3818C78.4627 52.8387 78.3437 49.9983 78.3437 47.3809C78.3437 44.6742 78.3437 41.9527 78.3437 39.2461C78.3437 37.8928 78.3586 36.5394 78.3586 35.1861C78.3586 33.8626 78.418 32.3903 78.3437 31.1113C76.7524 31.0221 74.9232 31.0964 73.3022 31.0964C71.6217 31.0964 69.9412 31.0964 68.2607 31.0964C66.6248 31.0964 65.1228 30.9775 63.71 31.5872C59.546 33.3867 60.3639 39.0825 60.3639 43.3804C60.3639 44.5404 60.2895 52.9875 60.3936 53.3741Z" fill="white"/>
<path fill-rule="evenodd" clip-rule="evenodd" d="M41.3877 78.254L41.4323 53.6118C41.5216 53.3143 41.4472 39.9448 41.4472 38.3981C41.4472 36.7771 41.2985 35.4238 40.6739 34.1151C39.157 30.9326 36.3462 31.0961 33.5504 31.0961C31.8699 31.0961 30.1894 31.0961 28.5238 31.0961C26.9325 31.0961 25.0289 31.0069 23.4823 31.111C23.4079 32.39 23.4674 33.8771 23.4674 35.1858V47.3806C23.4674 53.0466 23.3038 56.9579 25.1628 61.9696C27.2745 67.6655 31.2601 72.4987 36.0042 75.5325C36.8519 76.0679 40.6293 78.2094 41.3877 78.254Z" fill="white"/>
<path fill-rule="evenodd" clip-rule="evenodd" d="M50.8312 5.07122C50.9501 5.53224 50.8758 12.5814 50.8758 13.6819C50.8758 16.5819 50.8758 19.4818 50.8758 22.3669C50.7419 22.471 50.9353 22.4413 50.7419 22.3669L50.8609 22.6049C51.0691 22.5305 51.664 21.6828 51.8573 21.4895C52.244 21.0731 52.586 20.7757 52.9429 20.4039C53.2701 20.0767 53.7163 19.7198 54.1178 19.4372C60.2449 15.0203 67.3833 16.8495 74.5812 16.1803C75.1165 16.1357 78.2098 15.6747 78.3288 15.6896L78.3585 0C77.8083 0.0446149 77.1391 0.193331 76.5739 0.267689C71.3986 0.892297 67.9038 0.624608 62.9218 0.877425C53.8204 1.32357 51.664 4.96712 50.8312 5.07122Z" fill="white"/>
<path fill-rule="evenodd" clip-rule="evenodd" d="M50.742 22.3667C50.9353 22.4411 50.742 22.4708 50.8758 22.3667C50.8758 19.4816 50.8758 16.5816 50.8758 13.6817C50.8758 12.5812 50.9502 5.53202 50.8312 5.071C50.6081 4.77357 48.9722 3.67307 48.5112 3.39051C43.3061 0.193108 36.956 0.95156 30.9478 0.698743C29.6689 0.654128 28.375 0.57977 27.1258 0.460797C26.5161 0.416182 25.9064 0.341824 25.3115 0.267466C24.7166 0.193108 24.0325 0.0443917 23.4674 0.0146484V15.6893C23.6161 15.6745 26.6499 16.1355 27.1853 16.1801C33.7734 16.8047 40.1831 15.2729 46.1466 18.4555C48.9276 19.9277 50.504 22.2328 50.742 22.3667Z" fill="white"/>
<path fill-rule="evenodd" clip-rule="evenodd" d="M41.4323 53.612L41.3877 78.2542C41.5513 78.403 41.6405 78.3881 41.9082 78.4922C46.4887 80.0835 51.2476 80.4701 56.0511 79.5332C56.8393 79.3845 57.6126 79.1912 58.3562 78.983L59.9623 78.4773C60.23 78.3732 60.2895 78.403 60.4234 78.2542L60.3936 53.374C60.3788 53.3889 60.3788 53.4186 60.3788 53.4186C60.2895 53.6863 60.1854 54.5786 59.9772 55.2925C59.8136 55.8725 59.5906 56.4078 59.3377 56.8986C56.1998 62.9662 47.842 63.9477 43.4251 58.3858C43.1128 57.9842 42.8154 57.5381 42.5477 57.0176C42.1313 56.2591 41.819 55.3966 41.6405 54.5191C41.5959 54.2514 41.6108 53.7756 41.4323 53.612Z" fill="white"/>
</svg>
